<?xml version="1.0"?>
<svg version="1.1" xmlns="http://www.w3.org/2000/svg" width="189" height="120" style="border: dashed 2px #aaa"><path fill="#" d="M16.90625,48.40625q0-0.5,0.359375-0.828125t0.84375-0.515625t1.0625-0.25t1.015625-0.0625q0.90625,0,1.921875,0.25t1.515625,1.09375q0.90625,1.53125,1.328125,3.640625t0.796875,4.046875q0.5625,2.6875,1.4375,5.625t1.828125,5.984375t1.953125,5.984375t1.75,5.5q0.90625-3.78125,1.671875-7.75t1.46875-7.9375t1.46875-7.9375t1.671875-7.78125q0.1875-0.90625,0.28125-2.28125t0.390625-2.65625t0.859375-2.203125t1.71875-0.921875q1.21875,0,1.640625,0.671875t0.421875,1.953125q-0.3125,3.53125-1.015625,7t-1.296875,6.9375q-0.84375,4.28125-1.828125,8.578125t-1.84375,8.609375t-1.46875,8.640625t-0.734375,8.671875q0.0625,0.1875,0.1875,0.4375t0.125,0.375q0,0.375-0.34375,0.703125t-0.859375,0.5625t-1.125,0.359375t-1.140625,0.125q-0.5,0-1.140625-0.0625t-1.28125-0.234375t-1.125-0.453125t-0.609375-0.71875q-0.5-1.46875-0.921875-2.859375t-0.796875-2.859375q-1.78125-6.40625-3.734375-12.578125t-3.609375-12.546875q-0.78125-2.875-1.171875-5.640625t-1.265625-5.453125q0.125,0.25,0.125,0.40625q-0.125-0.4375-0.25-0.828125t-0.28125-0.859375q0,0.125,0.03125,0.15625t0.03125,0.09375q0-0.0625-0.03125-0.09375t-0.03125-0.09375z M50.7084375,79.59375q0-2.875,0.671875-5.640625t1.140625-5.515625q0.125-0.71875,0.984375-0.890625t1.453125-0.171875q1.03125,0,1.65625,0.3125q0.25,0.125,0.46875,0.28125t0.21875,0.40625q0,2.6875-0.640625,5.25t-0.640625,5.4375q0,0.96875,0.140625,1.828125t0.265625,1.703125l0.1875,0.90625q0,0.25,0.03125,0.4375t0.09375,0.4375q0,0.5625-0.796875,0.765625t-1.390625,0.203125q-0.90625,0-1.671875-0.359375t-1.203125-1.234375l-0.4375-0.90625q-0.375-0.71875-0.375-1.609375t-0.15625-1.640625z M52.7084375,60.78125l0-0.59375q0-1.46875,0.734375-2.625t2.203125-1.15625q0.1875,0,0.359375,0.03125t0.359375,0.03125q0.375,0.0625,0.984375,0.296875t0.609375,0.734375l0,0.0625q-0.125,0.25-0.15625,0.515625t-0.15625,0.453125l0.0625-0.0625q-0.375,0.96875-0.609375,1.5625t-0.515625,0.953125t-0.703125,0.515625t-1.203125,0.15625q-0.125,0-0.4375-0.03125t-0.671875-0.125t-0.609375-0.25t-0.25-0.46875z M63.073125,68.71875q0-0.25,0.296875-0.453125t0.671875-0.296875t0.765625-0.125t0.578125-0.03125q1.40625,0,2.40625,1.25t1.734375,3.203125t1.25,4.3125t0.984375,4.703125t0.921875,4.296875t1.015625,3.015625q0.96875-1.90625,1.765625-4.59375t1.46875-5.5625t1.1875-5.671875t0.828125-4.890625q0.125-0.5625,0.78125-0.703125t1.09375-0.140625q0.71875,0,1.25,0.203125t0.53125,0.890625q0,1.15625-0.28125,3.140625t-0.765625,4.453125t-1.125,5.0625t-1.375,4.921875t-1.53125,4.125t-1.578125,2.546875q-0.375,0.4375-1.171875,0.609375t-1.328125,0.171875q-1.84375,0-3.0625-0.96875l0,0.0625q-1.90625-1.78125-2.8125-4.34375t-1.3125-5.34375t-0.734375-5.53125t-1.109375-5q-0.125-0.25-0.3125-0.734375t-0.4375-0.96875t-0.421875-0.921875t-0.171875-0.6875z M87.7190625,80.34375q0-2.125,0.578125-4.09375t1.734375-3.515625t2.890625-2.46875t4.015625-0.921875q1.40625,0,3.109375,0.421875t3.203125,1.25t2.5,2.109375t1,2.9375q0,0.78125-0.265625,1.1875t-1.078125,0.40625l-0.34375-0.0625q0.90625,2.4375,1.5625,5t1.28125,5.125q0.25,0.5,0.375,0.890625t0.125,0.765625q0,0.5-0.28125,0.828125t-0.734375,0.484375t-0.9375,0.21875t-0.859375,0.0625q-1.34375,0-2.015625-0.46875t-0.96875-1.28125t-0.359375-1.828125t-0.25-2.046875q-0.375,1.21875-0.984375,2.375t-1.4375,2.078125t-1.953125,1.46875t-2.53125,0.546875q-2.0625,0-3.46875-1.1875t-2.265625-2.921875t-1.25-3.703125t-0.390625-3.65625z M92.1565625,79.90625q0,1.15625,0.15625,2.4375t0.515625,2.53125t0.921875,2.359375t1.40625,1.953125q1.53125-1.65625,2.265625-4.03125t1.3125-4.578125t1.3125-3.78125t2.265625-1.578125q0.96875,0,1.625,0.34375q-0.3125-0.78125-1.03125-1.515625t-1.609375-1.34375t-1.84375-1t-1.796875-0.390625q-0.25,0-0.578125,0.078125t-0.515625,0.015625q-1.28125,0.375-2.109375,1.296875t-1.34375,2.171875t-0.734375,2.5625t-0.21875,2.46875z M114.8025,91.4375q0-0.90625,0.078125-1.90625t0.140625-1.875l0.1875-4.6875q0.3125-5.625,0.765625-11.0625t0.765625-11q0.1875-3.0625,0.28125-6.015625t0.28125-6.015625q-0.125-0.25-0.125-0.34375q0-0.4375,0.328125-0.6875t0.765625-0.421875t0.921875-0.234375t0.734375-0.0625l0.71875,0q0.96875,0.125,1.40625,0.609375t0.5625,1.15625t0.0625,1.4375t-0.0625,1.421875q0,4.53125-0.21875,9.234375t-0.5,9.4375t-0.515625,9.46875t-0.234375,9.359375l0,2.1875q0,1.46875-0.828125,1.9375t-2.296875,0.46875q-1.28125,0-2.25-0.5625t-0.96875-1.84375z M129.1359375,79.96875q0-2.4375,0.515625-4.421875t1.640625-3.359375t2.953125-2.140625t4.453125-0.765625q1.46875,0,3,0.390625t2.625,1.453125q0-0.625,0.125-2.578125t0.3125-4.546875t0.390625-5.4375t0.359375-5.28125t0.28125-4.09375t0.1875-1.875q0.3125-0.90625,1.15625-1.078125t1.59375-0.171875q1.96875,0,2.421875,0.625t0.453125,2.5q0,6.84375-0.609375,13.625t-0.609375,13.625q0,4.40625,0.171875,8.859375t1.234375,8.765625l0.34375,0.3125l0.1875,0.5625l-0.46875,0.71875q-1.1875,0.75-2.75,0.75l-0.125,0q-1.59375,0-2.9375-0.75q-0.5-0.3125-0.828125-1.859375t-0.515625-3.40625t-0.28125-3.578125t-0.15625-2.4375q-1.09375,2.5-2.984375,4.296875t-4.765625,1.796875q-2.25,0-3.6875-0.96875t-2.234375-2.46875t-1.125-3.359375t-0.328125-3.703125z M132.9171875,80.15625q0,0.71875,0.171875,2.125t0.546875,2.8125t1.046875,2.5t1.765625,1.09375q1.46875-0.71875,2.65625-2.390625t2.046875-3.6875t1.34375-4.03125t0.484375-3.484375q0-1.84375-1.34375-3.0625t-3.21875-1.21875q-0.5625,0-1.140625,0.21875t-1.078125,0.5q-1.15625,1.09375-1.796875,1.984375t-0.96875,1.84375t-0.421875,2.109375t-0.09375,2.6875z M158.719375,79.59375q0-2.875,0.671875-5.640625t1.140625-5.515625q0.125-0.71875,0.984375-0.890625t1.453125-0.171875q1.03125,0,1.65625,0.3125q0.25,0.125,0.46875,0.28125t0.21875,0.40625q0,2.6875-0.640625,5.25t-0.640625,5.4375q0,0.96875,0.140625,1.828125t0.265625,1.703125l0.1875,0.90625q0,0.25,0.03125,0.4375t0.09375,0.4375q0,0.5625-0.796875,0.765625t-1.390625,0.203125q-0.90625,0-1.671875-0.359375t-1.203125-1.234375l-0.4375-0.90625q-0.375-0.71875-0.375-1.609375t-0.15625-1.640625z M160.719375,60.78125l0-0.59375q0-1.46875,0.734375-2.625t2.203125-1.15625q0.1875,0,0.359375,0.03125t0.359375,0.03125q0.375,0.0625,0.984375,0.296875t0.609375,0.734375l0,0.0625q-0.125,0.25-0.15625,0.515625t-0.15625,0.453125l0.0625-0.0625q-0.375,0.96875-0.609375,1.5625t-0.515625,0.953125t-0.703125,0.515625t-1.203125,0.15625q-0.125,0-0.4375-0.03125t-0.671875-0.125t-0.609375-0.25t-0.25-0.46875z"/><path fill="#" d=""/></svg>
