<?xml version="1.0" encoding="UTF-8"?>
<svg width="39.44mm" height="15.081mm" version="1.1" xmlns="http://www.w3.org/2000/svg" xmlns:cc="http://creativecommons.org/ns#" xmlns:dc="http://purl.org/dc/elements/1.1/" xmlns:rdf="http://www.w3.org/1999/02/22-rdf-syntax-ns#">
 <metadata>
  <rdf:RDF>
   <cc:Work rdf:about="">
    <dc:format>image/svg+xml</dc:format>
    <dc:type rdf:resource="http://purl.org/dc/dcmitype/StillImage"/>
    <dc:title/>
   </cc:Work>
  </rdf:RDF>
 </metadata>
 <path d="m0 9q0-0.5 0.35938-0.82812t0.84375-0.51562 1.0625-0.25 1.0156-0.0625q0.90625 0 1.9219 0.25t1.5156 1.0938q0.90625 1.5312 1.3281 3.6406t0.79688 4.0469q0.5625 2.6875 1.4375 5.625t1.8281 5.9844 1.9531 5.9844 1.75 5.5q0.90625-3.7812 1.6719-7.75t1.4688-7.9375 1.4688-7.9375 1.6719-7.7812q0.1875-0.90625 0.28125-2.2812t0.39062-2.6562 0.85938-2.2031 1.7188-0.92188q1.2188 0 1.6406 0.67188t0.42188 1.9531q-0.3125 3.5312-1.0156 7t-1.2969 6.9375q-0.84375 4.2812-1.8281 8.5781t-1.8438 8.6094-1.4688 8.6406-0.73438 8.6719q0.0625 0.1875 0.1875 0.4375t0.125 0.375q0 0.375-0.34375 0.70312t-0.85938 0.5625-1.125 0.35938-1.1406 0.125q-0.5 0-1.1406-0.0625t-1.2812-0.23438-1.125-0.45312-0.60938-0.71875q-0.5-1.4688-0.92188-2.8594t-0.79688-2.8594q-1.7812-6.4062-3.7344-12.578t-3.6094-12.547q-0.78125-2.875-1.1719-5.6406t-1.2656-5.4531q0.125 0.25 0.125 0.40625-0.125-0.4375-0.25-0.82812t-0.28125-0.85938q0 0.125 0.03125 0.15625t0.03125 0.09375q0-0.0625-0.03125-0.09375t-0.03125-0.09375zm33.802 31.188q0-2.875 0.67188-5.6406t1.1406-5.5156q0.125-0.71875 0.98438-0.89062t1.4531-0.17188q1.0312 0 1.6562 0.3125 0.25 0.125 0.46875 0.28125t0.21875 0.40625q0 2.6875-0.64062 5.25t-0.64062 5.4375q0 0.96875 0.14062 1.8281t0.26562 1.7031l0.1875 0.90625q0 0.25 0.03125 0.4375t0.09375 0.4375q0 0.5625-0.79688 0.76562t-1.3906 0.20312q-0.90625 0-1.6719-0.35938t-1.2031-1.2344l-0.4375-0.90625q-0.375-0.71875-0.375-1.6094t-0.15625-1.6406zm2-18.812v-0.59375q0-1.4688 0.73438-2.625t2.2031-1.1562q0.1875 0 0.35938 0.03125t0.35938 0.03125q0.375 0.0625 0.98438 0.29688t0.60938 0.73438v0.0625q-0.125 0.25-0.15625 0.51562t-0.15625 0.45312l0.0625-0.0625q-0.375 0.96875-0.60938 1.5625t-0.51562 0.95312-0.70312 0.51562-1.2031 0.15625q-0.125 0-0.4375-0.03125t-0.67188-0.125-0.60938-0.25-0.25-0.46875zm10.365 7.9375q0-0.25 0.29688-0.45312t0.67188-0.29688 0.76562-0.125 0.57812-0.03125q1.4062 0 2.4062 1.25t1.7344 3.2031 1.25 4.3125 0.98438 4.7031 0.92188 4.2969 1.0156 3.0156q0.96875-1.9062 1.7656-4.5938t1.4688-5.5625 1.1875-5.6719 0.82812-4.8906q0.125-0.5625 0.78125-0.70312t1.0938-0.14062q0.71875 0 1.25 0.20312t0.53125 0.89062q0 1.1562-0.28125 3.1406t-0.76562 4.4531-1.125 5.0625-1.375 4.9219-1.5312 4.125-1.5781 2.5469q-0.375 0.4375-1.1719 0.60938t-1.3281 0.17188q-1.8438 0-3.0625-0.96875v0.0625q-1.9062-1.7812-2.8125-4.3438t-1.3125-5.3438-0.73438-5.5312-1.1094-5q-0.125-0.25-0.3125-0.73438t-0.4375-0.96875-0.42188-0.92188-0.17188-0.6875zm24.646 11.625q0-2.125 0.57812-4.0938t1.7344-3.5156 2.8906-2.4688 4.0156-0.92188q1.4062 0 3.1094 0.42188 1.7031 0.42188 3.2031 1.25t2.5 2.1094 1 2.9375q0 0.78125-0.26562 1.1875-0.26563 0.40625-1.0781 0.40625l-0.34375-0.0625q0.90625 2.4375 1.5625 5t1.2812 5.125q0.25 0.5 0.375 0.89062t0.125 0.76562q0 0.5-0.28125 0.82812t-0.73437 0.48438q-0.45313 0.15625-0.9375 0.21875-0.48438 0.0625-0.85938 0.0625-1.3438 0-2.0156-0.46875-0.67188-0.46875-0.96875-1.2812-0.29688-0.8125-0.35938-1.8281t-0.25-2.0469q-0.375 1.2188-0.98437 2.375-0.60938 1.1562-1.4375 2.0781-0.82812 0.92188-1.9531 1.4688t-2.5312 0.54688q-2.0625 0-3.4688-1.1875t-2.2656-2.9219-1.25-3.7031-0.39062-3.6562zm4.4375-0.4375q0 1.1562 0.15625 2.4375t0.51562 2.5312 0.92188 2.3594 1.4062 1.9531q1.5312-1.6562 2.2656-4.0312t1.3125-4.5781 1.3125-3.7812q0.73437-1.5781 2.2656-1.5781 0.96875 0 1.625 0.34375-0.3125-0.78125-1.0312-1.5156t-1.6094-1.3438q-0.89063-0.60938-1.8438-1-0.95312-0.39062-1.7969-0.39062-0.25 0-0.57812 0.07813t-0.51562 0.01563q-1.2812 0.375-2.1094 1.2969t-1.3438 2.1719-0.73438 2.5625-0.21875 2.4688zm22.646 11.531q0-0.90625 0.0781-1.9062t0.14063-1.875l0.1875-4.6875q0.3125-5.625 0.76562-11.062 0.45313-5.4375 0.76563-11 0.1875-3.0625 0.28125-6.0156 0.0937-2.9531 0.28125-6.0156-0.125-0.25-0.125-0.34375 0-0.4375 0.32812-0.6875 0.32813-0.25 0.76563-0.42188t0.92187-0.23438q0.48438-0.0625 0.73438-0.0625h0.71875q0.96875 0.125 1.4062 0.60938t0.5625 1.1562 0.0625 1.4375-0.0625 1.4219q0 4.5312-0.21875 9.2344t-0.5 9.4375-0.51563 9.4688q-0.23435 4.7344-0.23435 9.3594v2.1875q0 1.4688-0.82813 1.9375-0.82812 0.46875-2.2969 0.46875-1.2812 0-2.25-0.5625t-0.96875-1.8438zm14.333-11.469q0-2.4375 0.51562-4.4219 0.51563-1.9844 1.6406-3.3594t2.9531-2.1406q1.8281-0.76562 4.4531-0.76562 1.4688 0 3 0.39062t2.625 1.4531q0-0.625 0.125-2.5781t0.3125-4.5469 0.39062-5.4375q0.20313-2.8438 0.35938-5.2812t0.28125-4.0938 0.1875-1.875q0.3125-0.90625 1.1562-1.0781t1.5938-0.17188q1.9688 0 2.4219 0.625 0.45313 0.625 0.45313 2.5 0 6.8438-0.60938 13.625-0.60937 6.7812-0.60937 13.625 0 4.4062 0.17187 8.8594 0.17188 4.4531 1.2344 8.7656l0.34375 0.3125 0.1875 0.5625-0.46875 0.71875q-1.1875 0.75-2.75 0.75h-0.125q-1.5938 0-2.9375-0.75-0.5-0.3125-0.82813-1.8594-0.32812-1.5469-0.51562-3.4062t-0.28125-3.5781q-0.0937-1.7188-0.15625-2.4375-1.0938 2.5-2.9844 4.2969-1.8906 1.7969-4.7656 1.7969-2.25 0-3.6875-0.96875t-2.2344-2.4688q-0.79687-1.5-1.125-3.3594-0.32812-1.8594-0.32812-3.7031zm3.7812 0.1875q0 0.71875 0.17187 2.125 0.17188 1.4062 0.54688 2.8125t1.0469 2.5q0.67188 1.0938 1.7656 1.0938 1.4688-0.71875 2.6562-2.3906t2.0469-3.6875q0.85938-2.0156 1.3438-4.0312 0.48438-2.0156 0.48438-3.4844 0-1.8438-1.3438-3.0625t-3.2188-1.2188q-0.5625 0-1.1406 0.21875-0.57812 0.21875-1.0781 0.5-1.1562 1.0938-1.7969 1.9844-0.64062 0.89062-0.96875 1.8438-0.32812 0.95312-0.42187 2.1094-0.0937 1.1562-0.0937 2.6875zm25.802-0.5625q0-2.875 0.67187-5.6406 0.67188-2.7656 1.1406-5.5156 0.125-0.71875 0.98437-0.89062 0.85938-0.17188 1.4531-0.17188 1.0312 0 1.6562 0.3125 0.25 0.125 0.46875 0.28125t0.21875 0.40625q0 2.6875-0.64063 5.25-0.64062 2.5625-0.64062 5.4375 0 0.96875 0.14062 1.8281 0.14063 0.85938 0.26563 1.7031l0.1875 0.90625q0 0.25 0.0312 0.4375t0.0937 0.4375q0 0.5625-0.79688 0.76562-0.79687 0.20312-1.3906 0.20312-0.90625 0-1.6719-0.35938-0.76552-0.35938-1.203-1.2344l-0.4375-0.90625q-0.375-0.71875-0.375-1.6094t-0.15625-1.6406zm2-18.812v-0.59375q0-1.4688 0.73437-2.625 0.73438-1.1562 2.2031-1.1562 0.1875 0 0.35937 0.03125 0.17188 0.03125 0.35938 0.03125 0.375 0.0625 0.98437 0.29688 0.60938 0.23438 0.60938 0.73438v0.0625q-0.125 0.25-0.15625 0.51562-0.0312 0.26562-0.15625 0.45312l0.0625-0.0625q-0.375 0.96875-0.60938 1.5625-0.23437 0.59375-0.51562 0.95312t-0.70313 0.51562q-0.42187 0.15625-1.2031 0.15625-0.125 0-0.4375-0.03125t-0.67188-0.125q-0.35937-0.09375-0.60937-0.25t-0.25-0.46875z" fill="#"/>
</svg>
